<svg width="92" height="20" viewBox="0 0 92 20" fill="none" xmlns="http://www.w3.org/2000/svg">
<path fill-rule="evenodd" clip-rule="evenodd" d="M72 2C72 0.89543 72.8954 0 74 0H90C91.1046 0 92 0.895431 92 2V3C92 4.10457 91.1046 5 90 5H74C72.8954 5 72 4.10457 72 3V2ZM72 17C72 15.8954 72.8954 15 74 15H90C91.1046 15 92 15.8954 92 17V18C92 19.1046 91.1046 20 90 20H74C72.8954 20 72 19.1046 72 18V17ZM74 7.5C72.8954 7.5 72 8.39543 72 9.5V10.5C72 11.6046 72.8954 12.5 74 12.5H90C91.1046 12.5 92 11.6046 92 10.5V9.5C92 8.39543 91.1046 7.5 90 7.5H74Z" fill="#D9D9D9"/>
<path fill-rule="evenodd" clip-rule="evenodd" d="M39.8334 0C38.7288 0 37.8334 0.89543 37.8334 2V3C37.8334 4.10457 38.7288 5 39.8334 5H40.8334C41.9379 5 42.8334 4.10457 42.8334 3V2C42.8334 0.895431 41.9379 0 40.8334 0H39.8334ZM47.3334 0C46.2288 0 45.3334 0.89543 45.3334 2V3C45.3334 4.10457 46.2288 5 47.3334 5H55.8334C56.9379 5 57.8334 4.10457 57.8334 3V2C57.8334 0.895431 56.9379 0 55.8334 0H47.3334ZM45.3334 9.5C45.3334 8.39543 46.2288 7.5 47.3334 7.5H55.8334C56.9379 7.5 57.8334 8.39543 57.8334 9.5V10.5C57.8334 11.6046 56.9379 12.5 55.8334 12.5H47.3334C46.2288 12.5 45.3334 11.6046 45.3334 10.5V9.5ZM47.3334 15C46.2288 15 45.3334 15.8954 45.3334 17V18C45.3334 19.1046 46.2288 20 47.3334 20H55.8334C56.9379 20 57.8334 19.1046 57.8334 18V17C57.8334 15.8954 56.9379 15 55.8334 15H47.3334ZM37.8334 17C37.8334 15.8954 38.7288 15 39.8334 15H40.8334C41.9379 15 42.8334 15.8954 42.8334 17V18C42.8334 19.1046 41.9379 20 40.8334 20H39.8334C38.7288 20 37.8334 19.1046 37.8334 18V17ZM39.8334 7.5C38.7288 7.5 37.8334 8.39543 37.8334 9.5V10.5C37.8334 11.6046 38.7288 12.5 39.8334 12.5H40.8334C41.9379 12.5 42.8334 11.6046 42.8334 10.5V9.5C42.8334 8.39543 41.9379 7.5 40.8334 7.5H39.8334Z" fill="#D9D9D9"/>
<rect x="0.333374" width="5" height="5" rx="2" fill="black"/>
<rect x="15.3334" width="5" height="5" rx="2" fill="black"/>
<rect x="7.83337" width="5" height="5" rx="2" fill="black"/>
<rect x="0.333374" y="15" width="5" height="5" rx="2" fill="black"/>
<rect x="15.3334" y="15" width="5" height="5" rx="2" fill="black"/>
<rect x="7.83337" y="15" width="5" height="5" rx="2" fill="black"/>
<rect x="0.333374" y="7.5" width="5" height="5" rx="2" fill="black"/>
<rect x="15.3334" y="7.5" width="5" height="5" rx="2" fill="black"/>
<rect x="7.83337" y="7.5" width="5" height="5" rx="2" fill="black"/>
</svg>
