<svg width="50" height="50" viewBox="0 0 50 50" fill="none" xmlns="http://www.w3.org/2000/svg">
<g id="&#208;&#154;&#208;&#189;&#208;&#190;&#208;&#191;&#208;&#186;&#208;&#176; &#208;&#189;&#208;&#176;&#208;&#178;&#208;&#181;&#209;&#128;&#209;&#133;">
<rect id="Rectangle 47" x="0.5" y="0.5" width="49" height="49" stroke="black"/>
<path id="Vector" fill-rule="evenodd" clip-rule="evenodd" d="M25.4074 11.1796C25.7172 11.3883 37.5964 23.4097 38.7233 24.5433C39.0054 24.8269 39.357 25.303 39.8298 25.3629C40.3288 25.4261 40.8148 25.1008 40.8148 24.3768C40.8148 23.9654 40.2593 23.5456 40.0173 23.3022L26.6261 9.83266C26.0566 9.25975 26.001 9.00024 25.2871 9.00024C24.8369 9.00024 23.6147 10.41 23.2558 10.771C22.5991 11.4315 21.9866 12.0476 21.3298 12.7082L10.8276 23.272C10.4264 23.6755 10 23.9204 10 24.4978C10 25.0441 10.4524 25.4049 10.9391 25.3675C11.4313 25.3297 11.7805 24.8559 12.0614 24.5735L23.4664 13.1017C23.8021 12.7641 24.0937 12.4708 24.4294 12.1331C24.6917 11.8692 25.138 11.3611 25.4074 11.1796Z" fill="black"/>
<path id="Vector 11" d="M24.5 38.5C24.5 39.0523 24.9477 39.5 25.5 39.5C26.0523 39.5 26.5 39.0523 26.5 38.5H24.5ZM24.5 10V38.5H26.5V10H24.5Z" fill="black"/>
</g>
</svg>
