<svg width="181" height="59" viewBox="0 0 181 59" fill="none" xmlns="http://www.w3.org/2000/svg">
<path d="M45.216 28.9745H29.5359V28.2383H35.3919V13.0703H29.5359V12.3022H45.216C47.4134 12.3022 49.344 12.6061 51.0081 13.2142C52.6723 13.8224 53.9683 14.745 54.8961 15.9824C55.824 17.2198 56.2882 18.777 56.2882 20.6543C56.2882 22.5104 55.824 24.057 54.8961 25.2944C53.9683 26.5318 52.6723 27.4544 51.0081 28.0625C49.344 28.6703 47.4134 28.9745 45.216 28.9745ZM45.216 13.0703H36.192V28.2383H45.216C47.3069 28.2383 49.1203 27.9612 50.6562 27.4064C52.1923 26.8515 53.3813 26.0091 54.2241 24.8783C55.067 23.7478 55.488 22.3396 55.488 20.6543C55.488 18.9478 55.067 17.5343 54.2241 16.4144C53.3813 15.2945 52.1923 14.4569 50.6562 13.9025C49.1203 13.3477 47.3069 13.0703 45.216 13.0703ZM81.7603 23.2145C81.7603 24.4943 81.3067 25.5877 80.4004 26.4944C79.4937 27.4011 78.2668 28.0943 76.7203 28.5743C75.1737 29.0543 73.44 29.2942 71.52 29.2942C69.6216 29.2942 67.8936 29.0543 66.336 28.5743C64.7788 28.0943 63.5467 27.4011 62.64 26.4944C61.7333 25.5877 61.2802 24.4943 61.2802 23.2145C61.2802 21.9129 61.7333 20.8198 62.64 19.9343C63.5467 19.0491 64.7788 18.3771 66.336 17.9182C67.8936 17.4598 69.6216 17.2304 71.52 17.2304C73.44 17.2304 75.1737 17.4598 76.7203 17.9182C78.2668 18.3771 79.4937 19.0491 80.4004 19.9343C81.3067 20.8198 81.7603 21.9129 81.7603 23.2145ZM62.0803 23.2145C62.0803 24.3238 62.496 25.2785 63.3283 26.0783C64.1601 26.8784 65.2857 27.4918 66.7041 27.9185C68.123 28.3452 69.7281 28.5584 71.52 28.5584C73.3123 28.5584 74.9174 28.3452 76.3363 27.9185C77.7547 27.4918 78.8803 26.8784 79.7121 26.0783C80.5444 25.2785 80.9601 24.3238 80.9601 23.2145C80.9601 22.0837 80.5444 21.129 79.7121 20.3504C78.8803 19.5718 77.7547 18.9795 76.3363 18.5744C74.9174 18.1688 73.3123 17.9663 71.52 17.9663C69.7281 17.9663 68.123 18.1745 66.7041 18.5903C65.2857 19.0064 64.1601 19.5983 63.3283 20.3663C62.496 21.1343 62.0803 22.0837 62.0803 23.2145ZM98.4643 28.9745H85.9521V28.2383H91.8081V18.2864H85.9521V17.5184H92.6083V21.9022C94.4856 20.4728 96.3682 19.3371 98.2564 18.4942C100.144 17.6518 102.198 17.2304 104.416 17.2304H105.216V21.9665H104.416V17.9663C102.432 17.9663 100.475 18.3771 98.5444 19.1984C96.6138 20.0197 94.6348 21.1664 92.6083 22.6385V28.2383H98.4643V28.9745ZM130.689 23.2145C130.689 24.4943 130.235 25.5877 129.329 26.4944C128.422 27.4011 127.195 28.0943 125.649 28.5743C124.102 29.0543 122.368 29.2942 120.448 29.2942C118.55 29.2942 116.822 29.0543 115.264 28.5743C113.707 28.0943 112.475 27.4011 111.568 26.4944C110.662 25.5877 110.208 24.4943 110.208 23.2145C110.208 21.9129 110.662 20.8198 111.568 19.9343C112.475 19.0491 113.707 18.3771 115.264 17.9182C116.822 17.4598 118.55 17.2304 120.448 17.2304C122.368 17.2304 124.102 17.4598 125.649 17.9182C127.195 18.3771 128.422 19.0491 129.329 19.9343C130.235 20.8198 130.689 21.9129 130.689 23.2145ZM111.009 23.2145C111.009 24.3238 111.424 25.2785 112.257 26.0783C113.088 26.8784 114.214 27.4918 115.632 27.9185C117.051 28.3452 118.656 28.5584 120.448 28.5584C122.241 28.5584 123.846 28.3452 125.265 27.9185C126.683 27.4918 127.809 26.8784 128.64 26.0783C129.473 25.2785 129.888 24.3238 129.888 23.2145C129.888 22.0837 129.473 21.129 128.64 20.3504C127.809 19.5718 126.683 18.9795 125.265 18.5744C123.846 18.1688 122.241 17.9663 120.448 17.9663C118.656 17.9663 117.051 18.1745 115.632 18.5903C114.214 19.0064 113.088 19.5983 112.257 20.3663C111.424 21.1343 111.009 22.0837 111.009 23.2145ZM153.505 21.3263C153.505 22.2863 153.126 23.0758 152.369 23.6945C151.611 24.3132 150.614 24.7717 149.377 25.0703C148.139 25.3692 146.795 25.5185 145.344 25.5185C143.937 25.5397 142.619 25.4062 141.393 25.1182C140.166 24.8302 139.2 24.3771 138.497 23.7584C138.006 23.9716 137.553 24.2596 137.136 24.6224C136.721 24.9852 136.512 25.4331 136.512 25.9664C136.512 26.2865 136.651 26.6172 136.929 26.9585C137.206 27.2998 137.664 27.5878 138.305 27.8225C138.945 28.0572 139.819 28.1744 140.928 28.1744C141.547 28.1744 142.305 28.1211 143.201 28.0145C144.096 27.9076 145.035 27.7798 146.016 27.6305C146.998 27.4812 147.936 27.3531 148.833 27.2465C149.729 27.1396 150.475 27.0863 151.073 27.0863C152.289 27.0863 153.318 27.3157 154.161 27.7745C155.003 28.233 155.425 28.9636 155.425 29.9663C155.425 30.9263 154.945 31.7264 153.985 32.3663C153.025 33.0065 151.723 33.4865 150.081 33.8062C148.438 34.1264 146.582 34.2863 144.513 34.2863C141.334 34.2863 139.041 33.9291 137.633 33.2144C136.224 32.4997 135.521 31.6198 135.521 30.5744C135.521 29.9984 135.696 29.5025 136.049 29.0864C136.401 28.6702 136.769 28.3452 137.153 28.1105C136.619 27.8116 136.257 27.4755 136.065 27.1025C135.873 26.7291 135.777 26.3825 135.777 26.0624C135.777 25.3798 136.027 24.8144 136.529 24.3665C137.03 23.9183 137.547 23.5875 138.081 23.3744C137.547 22.7768 137.28 22.0943 137.28 21.3263C137.28 20.3878 137.654 19.6145 138.401 19.0064C139.147 18.3982 140.134 17.9504 141.36 17.6624C142.587 17.3744 143.915 17.2304 145.344 17.2304C146.475 17.2304 147.542 17.3158 148.545 17.4863C149.547 17.6571 150.433 17.9235 151.201 18.2864C151.457 17.1555 151.963 16.281 152.721 15.6623C153.478 15.0436 154.369 14.7128 155.393 14.6705V15.4703C154.539 15.513 153.782 15.7583 153.121 16.2065C152.459 16.6544 151.958 17.4224 151.617 18.5105C152.193 18.8303 152.651 19.2248 152.993 19.6942C153.334 20.1637 153.505 20.7076 153.505 21.3263ZM138.081 21.3263C138.081 22.0731 138.411 22.7024 139.073 23.2145C139.734 23.7263 140.619 24.1103 141.729 24.3665C142.838 24.6224 144.043 24.7505 145.344 24.7505C146.688 24.7505 147.915 24.6224 149.025 24.3665C150.134 24.1103 151.019 23.7263 151.681 23.2145C152.342 22.7024 152.673 22.0731 152.673 21.3263C152.673 20.5583 152.342 19.929 151.681 19.4384C151.019 18.9478 150.134 18.5797 149.025 18.3344C147.915 18.0891 146.688 17.9663 145.344 17.9663C144.043 17.9663 142.838 18.0891 141.729 18.3344C140.619 18.5797 139.734 18.9478 139.073 19.4384C138.411 19.929 138.081 20.5583 138.081 21.3263ZM136.32 30.4784C136.32 31.3318 136.944 32.0518 138.192 32.6384C139.44 33.225 141.537 33.5182 144.48 33.5182C146.4 33.5182 148.128 33.3958 149.665 33.1505C151.201 32.9052 152.411 32.5155 153.297 31.9823C154.182 31.449 154.625 30.777 154.625 29.9663C154.625 29.2198 154.299 28.6812 153.649 28.3505C152.998 28.0198 152.139 27.8543 151.073 27.8543C150.433 27.8543 149.67 27.9022 148.785 27.9982C147.899 28.0942 146.966 28.2118 145.985 28.3505C145.003 28.4892 144.059 28.6064 143.153 28.7024C142.246 28.7984 141.473 28.8464 140.832 28.8464C140.171 28.8464 139.584 28.8037 139.073 28.7182C138.561 28.6332 138.123 28.5262 137.76 28.3985C137.334 28.6117 136.987 28.905 136.721 29.2784C136.454 29.6518 136.32 30.0517 136.32 30.4784ZM180.609 23.2145C180.609 24.4943 180.155 25.5877 179.249 26.4944C178.342 27.4011 177.115 28.0943 175.569 28.5743C174.022 29.0543 172.289 29.2942 170.369 29.2942C168.47 29.2942 166.742 29.0543 165.185 28.5743C163.627 28.0943 162.395 27.4011 161.489 26.4944C160.582 25.5877 160.129 24.4943 160.129 23.2145C160.129 21.9129 160.582 20.8198 161.489 19.9343C162.395 19.0491 163.627 18.3771 165.185 17.9182C166.742 17.4598 168.47 17.2304 170.369 17.2304C172.289 17.2304 174.022 17.4598 175.569 17.9182C177.115 18.3771 178.342 19.0491 179.249 19.9343C180.155 20.8198 180.609 21.9129 180.609 23.2145ZM160.929 23.2145C160.929 24.3238 161.345 25.2785 162.177 26.0783C163.009 26.8784 164.134 27.4918 165.553 27.9185C166.972 28.3452 168.577 28.5584 170.369 28.5584C172.161 28.5584 173.766 28.3452 175.185 27.9185C176.603 27.4918 177.729 26.8784 178.561 26.0783C179.393 25.2785 179.809 24.3238 179.809 23.2145C179.809 22.0837 179.393 21.129 178.561 20.3504C177.729 19.5718 176.603 18.9795 175.185 18.5744C173.766 18.1688 172.161 17.9663 170.369 17.9663C168.577 17.9663 166.972 18.1745 165.553 18.5903C164.134 19.0064 163.009 19.5983 162.177 20.3663C161.345 21.1343 160.929 22.0837 160.929 23.2145Z" fill="white"/>
<path d="M49.3762 53.5218H29.5359V52.7855H35.3919V37.6176H29.5359V36.8495H49.152C50.7946 36.8495 52.0694 37.223 52.9762 37.9698C53.8829 38.7162 54.336 39.719 54.336 40.9775C54.336 41.9802 54.0427 42.839 53.4561 43.5537C52.8695 44.2684 51.9787 44.7431 50.784 44.9778C52.1923 45.1482 53.3121 45.5697 54.144 46.2417C54.9763 46.9137 55.392 47.8895 55.392 49.1697C55.392 50.6418 54.8587 51.7348 53.7922 52.4495C52.7256 53.1643 51.2534 53.5218 49.3762 53.5218ZM49.0882 37.6176H36.192V44.5938H48.96C50.304 44.5938 51.4027 44.2895 52.2561 43.6818C53.1095 43.0737 53.5363 42.1722 53.5363 40.9775C53.5363 39.7828 53.1095 38.9241 52.2561 38.4018C51.4027 37.8791 50.3467 37.6176 49.0882 37.6176ZM48.8001 45.3935L36.192 45.3618V52.7855H49.152C50.7946 52.7855 52.1121 52.5085 53.1043 51.9537C54.096 51.3988 54.5923 50.471 54.5923 49.1697C54.5923 48.2524 54.3307 47.5161 53.808 46.9617C53.2853 46.4068 52.5868 46.007 51.7123 45.7617C50.8373 45.5164 49.8667 45.3935 48.8001 45.3935ZM81.6643 47.7618C81.6643 49.0415 81.2107 50.135 80.3044 51.0417C79.3977 51.9484 78.1708 52.6416 76.6243 53.1216C75.0777 53.6016 73.344 53.8416 71.424 53.8416C69.5256 53.8416 67.7976 53.6016 66.24 53.1216C64.6828 52.6416 63.4507 51.9484 62.544 51.0417C61.6373 50.135 61.1842 49.0415 61.1842 47.7618C61.1842 46.4601 61.6373 45.3671 62.544 44.4815C63.4507 43.5964 64.6828 42.9244 66.24 42.4655C67.7976 42.0071 69.5256 41.7777 71.424 41.7777C73.344 41.7777 75.0777 42.0071 76.6243 42.4655C78.1708 42.9244 79.3977 43.5964 80.3044 44.4815C81.2107 45.3671 81.6643 46.4601 81.6643 47.7618ZM61.9843 47.7618C61.9843 48.8711 62.4 49.8258 63.2323 50.6256C64.0641 51.4257 65.1897 52.0391 66.6081 52.4658C68.027 52.8925 69.6321 53.1056 71.424 53.1056C73.2163 53.1056 74.8214 52.8925 76.2403 52.4658C77.6587 52.0391 78.7843 51.4257 79.6161 50.6256C80.4484 49.8258 80.8641 48.8711 80.8641 47.7618C80.8641 46.631 80.4484 45.6762 79.6161 44.8977C78.7843 44.1191 77.6587 43.5268 76.2403 43.1217C74.8214 42.7161 73.2163 42.5135 71.424 42.5135C69.6321 42.5135 68.027 42.7218 66.6081 43.1376C65.1897 43.5537 64.0641 44.1455 63.2323 44.9135C62.4 45.6815 61.9843 46.631 61.9843 47.7618ZM104.481 45.8735C104.481 46.8335 104.102 47.6231 103.344 48.2418C102.587 48.8605 101.59 49.319 100.353 49.6176C99.1151 49.9165 97.7711 50.0658 96.3201 50.0658C94.9123 50.087 93.5951 49.9535 92.3683 49.6655C91.1418 49.3775 90.1762 48.9244 89.4724 48.3057C88.9814 48.5188 88.5283 48.8068 88.1121 49.1697C87.6964 49.5325 87.4882 49.9804 87.4882 50.5137C87.4882 50.8338 87.6269 51.1645 87.9043 51.5058C88.1817 51.8471 88.6401 52.1351 89.2804 52.3698C89.9203 52.6045 90.7949 52.7217 91.9041 52.7217C92.5229 52.7217 93.2803 52.6684 94.1764 52.5618C95.0722 52.4548 96.011 52.3271 96.9921 52.1778C97.9737 52.0285 98.9121 51.9004 99.8083 51.7938C100.704 51.6868 101.451 51.6336 102.048 51.6336C103.264 51.6336 104.294 51.863 105.136 52.3218C105.979 52.7803 106.401 53.5108 106.401 54.5135C106.401 55.4735 105.921 56.2737 104.961 56.9135C104.001 57.5538 102.699 58.0338 101.056 58.3535C99.4137 58.6737 97.5576 58.8336 95.4883 58.8336C92.3097 58.8336 90.0163 58.4764 88.6084 57.7617C87.2001 57.047 86.4964 56.1671 86.4964 55.1217C86.4964 54.5457 86.6721 54.0498 87.0244 53.6337C87.3763 53.2176 87.7444 52.8925 88.1284 52.6578C87.5951 52.3588 87.2323 52.0228 87.0403 51.6498C86.8483 51.2764 86.7523 50.9298 86.7523 50.6097C86.7523 49.9271 87.0028 49.3617 87.5044 48.9138C88.0056 48.4656 88.523 48.1348 89.0563 47.9217C88.523 47.3241 88.2561 46.6415 88.2561 45.8735C88.2561 44.9351 88.6296 44.1618 89.3764 43.5537C90.1229 42.9455 91.1097 42.4977 92.3361 42.2097C93.563 41.9217 94.8911 41.7777 96.3201 41.7777C97.451 41.7777 98.5176 41.8631 99.5203 42.0336C100.523 42.2044 101.409 42.4708 102.177 42.8337C102.432 41.7028 102.939 40.8282 103.696 40.2095C104.454 39.5908 105.345 39.2601 106.368 39.2178V40.0176C105.515 40.0603 104.758 40.3055 104.097 40.7538C103.435 41.2017 102.934 41.9697 102.592 43.0578C103.168 43.3775 103.627 43.7721 103.968 44.2416C104.31 44.711 104.481 45.2548 104.481 45.8735ZM89.0563 45.8735C89.0563 46.6204 89.387 47.2497 90.0484 47.7618C90.7098 48.2735 91.595 48.6576 92.7043 48.9138C93.8136 49.1697 95.0189 49.2978 96.3201 49.2978C97.6641 49.2978 98.891 49.1697 100 48.9138C101.11 48.6576 101.995 48.2735 102.657 47.7618C103.318 47.2497 103.648 46.6204 103.648 45.8735C103.648 45.1055 103.318 44.4762 102.657 43.9857C101.995 43.4951 101.11 43.127 100 42.8817C98.891 42.6364 97.6641 42.5135 96.3201 42.5135C95.0189 42.5135 93.8136 42.6364 92.7043 42.8817C91.595 43.127 90.7098 43.4951 90.0484 43.9857C89.387 44.4762 89.0563 45.1055 89.0563 45.8735ZM87.2962 55.0257C87.2962 55.8791 87.9202 56.5991 89.1682 57.1857C90.4162 57.7722 92.5123 58.0655 95.4561 58.0655C97.3761 58.0655 99.1041 57.9431 100.641 57.6978C102.176 57.4525 103.387 57.0628 104.272 56.5296C105.158 55.9963 105.6 55.3242 105.6 54.5135C105.6 53.7671 105.275 53.2285 104.625 52.8978C103.974 52.5671 103.115 52.4015 102.048 52.4015C101.409 52.4015 100.646 52.4495 99.7603 52.5455C98.8751 52.6416 97.9416 52.7591 96.9604 52.8978C95.9789 53.0365 95.0351 53.1537 94.1284 53.2497C93.2217 53.3457 92.4484 53.3937 91.8081 53.3937C91.1471 53.3937 90.5601 53.351 90.0484 53.2655C89.5363 53.1805 89.099 53.0735 88.7361 52.9458C88.3094 53.159 87.9629 53.4523 87.6964 53.8257C87.4296 54.1991 87.2962 54.599 87.2962 55.0257ZM133.921 52.9137C133.558 53.1911 133.153 53.4148 132.705 53.5857C132.257 53.7565 131.787 53.8416 131.297 53.8416C130.571 53.8416 129.958 53.6178 129.457 53.1695C128.955 52.7217 128.651 52.0818 128.545 51.2495C126.817 52.103 125.009 52.7485 123.12 53.1858C121.233 53.6231 119.424 53.8416 117.696 53.8416C115.691 53.8416 114.139 53.5483 113.04 52.9617C111.942 52.3751 111.393 51.5591 111.393 50.5137C111.393 49.319 112.075 48.407 113.441 47.7777C114.806 47.1484 116.673 46.8336 119.04 46.8336C120.918 46.8336 122.63 46.9401 124.176 47.1537C125.723 47.3668 127.158 47.6121 128.481 47.8895V47.2176C128.481 45.8524 127.953 44.7268 126.897 43.8417C125.841 42.9561 124.15 42.5135 121.824 42.5135C120.161 42.5135 118.534 42.6897 116.945 43.0416C115.355 43.3938 113.739 43.8364 112.097 44.3697L111.873 43.6017C113.622 43.0041 115.318 42.551 116.961 42.2418C118.603 41.9323 120.225 41.7777 121.824 41.7777C124.363 41.7777 126.241 42.2788 127.457 43.2815C128.673 44.2842 129.281 45.5961 129.281 47.2176V50.5458C129.281 51.4204 129.489 52.0655 129.905 52.4817C130.321 52.8978 130.795 53.1056 131.329 53.1056C131.777 53.1056 132.177 53.0365 132.529 52.8978C132.881 52.7591 133.206 52.5618 133.505 52.3055L133.921 52.9137ZM112.224 50.4815C112.224 51.3138 112.699 51.959 113.649 52.4178C114.598 52.8763 115.947 53.1056 117.696 53.1056C119.382 53.1056 121.158 52.8816 123.024 52.4337C124.891 51.9858 126.71 51.3565 128.481 50.5458V48.5615C127.158 48.2845 125.691 48.0498 124.08 47.8578C122.47 47.6658 120.79 47.5698 119.04 47.5698C116.928 47.5698 115.265 47.8257 114.048 48.3378C112.833 48.8495 112.224 49.5642 112.224 50.4815ZM149.217 52.4015C148.512 52.7428 147.67 53.0682 146.688 53.3778C145.707 53.6869 144.651 53.8416 143.52 53.8416C142.219 53.8416 141.195 53.5165 140.448 52.8657C139.702 52.2148 139.329 51.1108 139.329 49.5537V42.8337H135.137V42.0657H139.329V38.8977H140.129V42.0657H147.777V42.8337H140.129V49.5537C140.129 50.8765 140.438 51.7991 141.057 52.3218C141.675 52.8445 142.475 53.1056 143.457 53.1056C144.566 53.1056 145.579 52.9617 146.496 52.6737C147.414 52.3857 148.203 52.0708 148.865 51.7296L149.217 52.4015ZM174.209 47.7618C174.209 49.0415 173.755 50.135 172.849 51.0417C171.942 51.9484 170.715 52.6416 169.169 53.1216C167.622 53.6016 165.888 53.8416 163.968 53.8416C162.07 53.8416 160.342 53.6016 158.784 53.1216C157.227 52.6416 155.995 51.9484 155.088 51.0417C154.182 50.135 153.729 49.0415 153.729 47.7618C153.729 46.4601 154.182 45.3671 155.088 44.4815C155.995 43.5964 157.227 42.9244 158.784 42.4655C160.342 42.0071 162.07 41.7777 163.968 41.7777C165.888 41.7777 167.622 42.0071 169.169 42.4655C170.715 42.9244 171.942 43.5964 172.849 44.4815C173.755 45.3671 174.209 46.4601 174.209 47.7618ZM154.529 47.7618C154.529 48.8711 154.944 49.8258 155.777 50.6256C156.609 51.4257 157.734 52.0391 159.153 52.4658C160.571 52.8925 162.177 53.1056 163.968 53.1056C165.761 53.1056 167.366 52.8925 168.785 52.4658C170.203 52.0391 171.329 51.4257 172.161 50.6256C172.993 49.8258 173.409 48.8711 173.409 47.7618C173.409 46.631 172.993 45.6762 172.161 44.8977C171.329 44.1191 170.203 43.5268 168.785 43.1217C167.366 42.7161 165.761 42.5135 163.968 42.5135C162.177 42.5135 160.571 42.7218 159.153 43.1376C157.734 43.5537 156.609 44.1455 155.777 44.9135C154.944 45.6815 154.529 46.631 154.529 47.7618Z" fill="white"/>
<path fill-rule="evenodd" clip-rule="evenodd" d="M24.8976 9.76995C21.0969 10.4945 16.0327 8.55485 15.9246 4.14377C15.7957 -1.09693 24.61 -0.152825 24.8976 9.76995Z" stroke="#E31E24" stroke-width="0.755906" stroke-miterlimit="22.9256"/>
<path fill-rule="evenodd" clip-rule="evenodd" d="M27.7852 9.95515C31.5858 10.6797 36.65 8.74002 36.7581 4.32893C36.887 -0.911758 28.0728 0.0323804 27.7852 9.95515Z" stroke="#E31E24" stroke-width="0.755906" stroke-miterlimit="22.9256"/>
<path d="M26.3357 12.3022V53.5218" stroke="#E31E24" stroke-width="0.755906" stroke-miterlimit="22.9256"/>
<path d="M1 28.6926H26.3357" stroke="#E31E24" stroke-width="0.755906" stroke-miterlimit="22.9256"/>
<path d="M1 36.9425H26.3357" stroke="#E31E24" stroke-width="0.755906" stroke-miterlimit="22.9256"/>
<path d="M23.3745 12.6908H1.31372V53.1896H23.5967" stroke="#E31E24" stroke-width="0.755906" stroke-miterlimit="22.9256"/>
</svg>
